<!-- Generator: Adobe Illustrator 23.0.0, SVG Export Plug-In  -->
<svg version="1.1" xmlns="http://www.w3.org/2000/svg" xmlns:xlink="http://www.w3.org/1999/xlink" x="0px" y="0px"
	 width="189.191px" height="189.192px" viewBox="0 0 189.191 189.192" style="enable-background:new 0 0 189.191 189.192;"
	 xml:space="preserve">
<style type="text/css">
	.st0{fill:#384B9E;}
	.st1{fill:#FFFFFF;}
	.st2{fill:#FCB636;}
	.st3{fill:#525DA7;}
</style>
<defs>
</defs>
<g>
	<path class="st0" d="M0,189.192h169.546c4.337-11.146,2.546-20.113,2.546-20.113s10.642,5.903,17.099,0.467V0H0V189.192z
		 M22.851,22.727h64.087V33.28H22.851V22.727z M22.851,45.876H166.34v7.489H22.851V45.876z M22.851,64.514H166.34v7.489H22.851
		V64.514z M22.851,83.152H166.34v7.489H22.851V83.152z M22.851,101.79H166.34v7.489H22.851V101.79z M22.851,120.429H166.34v7.489
		H22.851V120.429z M22.851,139.067H166.34v7.489H22.851V139.067z"/>
	<rect x="22.851" y="22.727" class="st1" width="64.087" height="10.553"/>
	<rect x="22.851" y="45.876" class="st1" width="143.489" height="7.489"/>
	<rect x="22.851" y="64.514" class="st1" width="143.489" height="7.489"/>
	<rect x="22.851" y="83.152" class="st1" width="143.489" height="7.489"/>
	<rect x="22.851" y="101.79" class="st1" width="143.489" height="7.489"/>
	<rect x="22.851" y="120.429" class="st2" width="143.489" height="7.489"/>
	<rect x="22.851" y="139.067" class="st1" width="143.489" height="7.489"/>
	<path class="st3" d="M172.092,169.079c0,0,1.791,8.967-2.546,20.113l19.646-19.646
		C182.734,174.982,172.092,169.079,172.092,169.079z"/>
</g>
</svg>