<!-- Generator: Adobe Illustrator 23.0.0, SVG Export Plug-In  -->
<svg version="1.1" xmlns="http://www.w3.org/2000/svg" xmlns:xlink="http://www.w3.org/1999/xlink" x="0px" y="0px"
	 width="189.191px" height="189.192px" viewBox="0 0 189.191 189.192" style="enable-background:new 0 0 189.191 189.192;"
	 xml:space="preserve">
<style type="text/css">
	.st0{fill:#384B9E;}
	.st1{fill:#FFFFFF;}
	.st2{fill:#525DA7;}
	.st3{fill:#FCB636;}
</style>
<defs>
</defs>
<g>
	<polygon class="st0" points="169.021,23.17 169.021,166.021 169.021,168.315 189.191,188.485 189.191,0.862 169.021,21.038 	"/>
	<polygon class="st0" points="20.17,166.021 20.17,23.17 20.17,20.877 0,0.707 0,188.694 20.17,168.518 	"/>
	<polygon class="st0" points="23.17,20.17 166.021,20.17 168.475,20.17 188.639,0 0.707,0 20.877,20.17 	"/>
	<polygon class="st0" points="166.021,169.021 23.17,169.021 21.081,169.021 0.917,189.192 188.484,189.192 168.314,169.021 	"/>
	<polygon class="st1" points="169.021,168.315 169.021,169.021 168.314,169.021 188.484,189.192 189.191,189.192 189.191,188.485 	
		"/>
	<polygon class="st1" points="20.17,20.17 20.877,20.17 0.707,0 0,0 0,0.707 20.17,20.877 	"/>
	<polygon class="st1" points="169.021,20.17 169.021,21.038 189.191,0.862 189.191,0 188.639,0 168.475,20.17 	"/>
	<polygon class="st1" points="20.17,169.021 20.17,168.518 0,188.694 0,189.192 0.917,189.192 21.081,169.021 	"/>
	<rect x="23.17" y="23.17" class="st2" width="142.851" height="142.851"/>
	<path class="st3" d="M169.021,23.17v-2.132V20.17h-0.546h-2.454H23.17h-2.293H20.17v0.707v2.293v142.851v2.497v0.503h0.911h2.089
		h142.851h2.293h0.707v-0.707v-2.293V23.17z M23.17,166.021V23.17h142.851v142.851H23.17z"/>
</g>
</svg>