<!-- Generator: Adobe Illustrator 23.0.0, SVG Export Plug-In  -->
<svg version="1.1" xmlns="http://www.w3.org/2000/svg" xmlns:xlink="http://www.w3.org/1999/xlink" x="0px" y="0px"
	 width="189.191px" height="189.192px" viewBox="0 0 189.191 189.192" style="enable-background:new 0 0 189.191 189.192;"
	 xml:space="preserve">
<style type="text/css">
	.st0{fill:#384B9E;}
	.st1{fill:#FCB636;}
	.st2{fill:#FFFFFF;}
</style>
<defs>
</defs>
<g>
	<path class="st0" d="M0,0v189.192h169.546l19.646-19.646V0H0z M34.426,151.471c-3.807,0-6.894-3.086-6.894-6.894
		c0-3.807,3.086-6.894,6.894-6.894s6.894,3.086,6.894,6.894C41.319,148.385,38.233,151.471,34.426,151.471z M34.426,131.386
		c-3.807,0-6.894-3.086-6.894-6.894s3.086-6.894,6.894-6.894s6.894,3.086,6.894,6.894S38.233,131.386,34.426,131.386z
		 M34.426,111.812c-3.807,0-6.894-3.086-6.894-6.894c0-3.807,3.086-6.894,6.894-6.894s6.894,3.086,6.894,6.894
		C41.319,108.725,38.233,111.812,34.426,111.812z M34.426,92.237c-3.807,0-6.894-3.086-6.894-6.894s3.086-6.894,6.894-6.894
		s6.894,3.086,6.894,6.894S38.233,92.237,34.426,92.237z M34.426,72.663c-3.807,0-6.894-3.086-6.894-6.894
		c0-3.807,3.086-6.894,6.894-6.894s6.894,3.086,6.894,6.894C41.319,69.576,38.233,72.663,34.426,72.663z M34.426,53.088
		c-3.807,0-6.894-3.086-6.894-6.894s3.086-6.894,6.894-6.894s6.894,3.086,6.894,6.894S38.233,53.088,34.426,53.088z M34.426,33.514
		c-3.807,0-6.894-3.086-6.894-6.894s3.086-6.894,6.894-6.894s6.894,3.086,6.894,6.894S38.233,33.514,34.426,33.514z M161.66,148.663
		H50.5v-7.489h111.16V148.663z M161.66,129.003H50.5v-7.489h111.16V129.003z M161.66,109.344H50.5v-7.489h111.16V109.344z
		 M161.66,89.684H50.5v-7.489h111.16V89.684z M161.66,70.025H50.5v-7.489h111.16V70.025z M161.66,50.365H50.5v-7.489h111.16V50.365z
		 M161.66,30.705H50.5v-7.489h111.16V30.705z"/>
	<circle class="st1" cx="34.426" cy="26.62" r="6.894"/>
	<rect x="50.5" y="23.216" class="st2" width="111.16" height="7.489"/>
	<circle class="st2" cx="34.426" cy="46.195" r="6.894"/>
	<rect x="50.5" y="42.876" class="st2" width="111.16" height="7.489"/>
	<circle class="st2" cx="34.426" cy="65.769" r="6.894"/>
	<rect x="50.5" y="62.535" class="st2" width="111.16" height="7.489"/>
	<circle class="st2" cx="34.426" cy="85.344" r="6.894"/>
	<rect x="50.5" y="82.195" class="st1" width="111.16" height="7.489"/>
	<circle class="st2" cx="34.426" cy="104.918" r="6.894"/>
	<rect x="50.5" y="101.854" class="st2" width="111.16" height="7.489"/>
	<circle class="st2" cx="34.426" cy="124.493" r="6.894"/>
	<rect x="50.5" y="121.514" class="st2" width="111.16" height="7.489"/>
	<circle class="st2" cx="34.426" cy="144.578" r="6.894"/>
	<rect x="50.5" y="141.174" class="st2" width="111.16" height="7.489"/>
</g>
</svg>